<svg width="31" height="44" viewBox="0 0 31 44" fill="none" xmlns="http://www.w3.org/2000/svg">
<path d="M22.298 27.202L18.428 23.332C19.129 22.403 19.55 21.251 19.55 20C19.55 16.94 17.061 14.45 14 14.45C10.94 14.45 8.44995 16.94 8.44995 20C8.44995 23.061 10.94 25.55 14 25.55C15.251 25.55 16.403 25.129 17.332 24.428L21.202 28.298C21.353 28.449 21.552 28.526 21.75 28.526C21.948 28.526 22.146 28.45 22.298 28.298C22.601 27.995 22.601 27.505 22.298 27.202ZM9.54995 20C9.54995 17.546 11.547 15.55 14 15.55C16.454 15.55 18.45 17.547 18.45 20C18.45 22.453 16.454 24.45 14 24.45C11.546 24.45 9.54995 22.454 9.54995 20Z" fill="black" fill-opacity="0.8"/>
</svg>
